<svg width="159" height="41" viewBox="0 0 159 41" fill="none" xmlns="http://www.w3.org/2000/svg">
<g clip-path="url(#clip0_1_161)">
<g clip-path="url(#clip1_1_161)">
<g clip-path="url(#clip2_1_161)">
<path d="M104.524 20.7595C104.524 21.6974 104.689 22.5711 105.029 23.3898C105.369 24.2084 105.837 24.9165 106.434 25.5237C107.022 26.1306 107.729 26.6088 108.547 26.9583C109.355 27.3078 110.228 27.4826 111.164 27.4826C112.111 27.4826 112.965 27.3078 113.718 26.949C114.462 26.5905 115.105 26.103 115.619 25.4867C116.143 24.8704 116.547 24.1531 116.832 23.3254C117.116 22.4977 117.254 21.6146 117.254 20.6766V10.486C117.254 10.0629 117.337 9.66735 117.502 9.30881C117.667 8.95002 117.897 8.63723 118.182 8.37072C118.467 8.10395 118.797 7.8925 119.165 7.73611C119.532 7.57971 119.918 7.50604 120.331 7.50604C120.754 7.50604 121.139 7.57971 121.488 7.73611C121.838 7.8925 122.15 8.10395 122.416 8.37072C122.683 8.63723 122.894 8.95002 123.041 9.30881C123.188 9.66735 123.261 10.0629 123.261 10.486V20.6122C123.261 22.378 122.967 24.0427 122.37 25.6064C121.773 27.1698 120.937 28.531 119.872 29.6992C118.806 30.8671 117.53 31.7961 116.042 32.4768C114.554 33.1574 112.928 33.4976 111.164 33.4976C109.401 33.4976 107.757 33.1574 106.223 32.4861C104.689 31.8145 103.348 30.9041 102.209 29.7452C101.07 28.5864 100.17 27.2344 99.5085 25.6891C98.8472 24.1441 98.5166 22.4977 98.5166 20.7502V10.486C98.5166 10.0629 98.5993 9.66735 98.7555 9.30881C98.9116 8.95002 99.1228 8.63723 99.389 8.37072C99.6555 8.10395 99.9771 7.8925 100.344 7.73611C100.712 7.57971 101.097 7.50604 101.511 7.50604C101.915 7.50604 102.301 7.57971 102.668 7.73611C103.036 7.8925 103.357 8.10395 103.642 8.37072C103.917 8.63723 104.129 8.95002 104.285 9.30881C104.441 9.66735 104.524 10.0629 104.524 10.486V20.7595Z" fill="#011C47"/>
<path fill-rule="evenodd" clip-rule="evenodd" d="M95.0825 27.4655C96.7506 27.4655 98.1026 28.8177 98.1026 30.4856C98.1026 32.1536 96.7506 33.5059 95.0825 33.5059C93.4147 33.5059 92.0625 32.1536 92.0625 30.4856C92.0625 28.8177 93.4147 27.4655 95.0825 27.4655Z" fill="#6682A9"/>
<path d="M130.68 7.51355H144.219C144.715 7.5195 145.102 7.59808 145.556 7.78756C146.656 8.27638 147.324 9.27108 147.324 10.3793C147.322 10.9462 147.138 11.5006 146.791 11.9693L131.811 32.2565C130.852 33.5555 128.911 33.897 127.498 33.015C126.085 32.133 125.713 30.3483 126.673 29.0493L138.051 13.6392H130.838C128.971 13.6392 127.443 12.2658 127.443 10.5871C127.443 9.92741 127.679 9.31503 128.079 8.81432C128.634 8.03287 129.594 7.51355 130.68 7.51355ZM138.987 27.3924H145.676C147.384 27.3924 148.781 28.766 148.781 30.4447C148.781 32.1234 147.384 33.4971 145.676 33.4971H138.987C137.279 33.4971 135.882 32.1234 135.882 30.4447C135.882 28.766 137.279 27.3924 138.987 27.3924Z" fill="#011C47"/>
<path d="M89.1301 30.5494C89.1301 30.9715 89.0474 31.357 88.8915 31.715C88.7356 32.0727 88.534 32.3847 88.2773 32.651C88.0116 32.9173 87.7089 33.1282 87.3514 33.275C86.9846 33.4221 86.6087 33.4955 86.2052 33.4955C85.7926 33.4955 85.4077 33.4221 85.0226 33.275C84.6467 33.1282 84.3256 32.9263 84.0416 32.6603C83.7665 32.3941 83.5465 32.082 83.3814 31.724C83.2164 31.3663 83.134 30.9715 83.134 30.5494V20.3253C83.134 20.1784 83.1523 20.0683 83.1888 19.9949C83.1523 19.0956 82.9688 18.2511 82.6387 17.4619C82.3088 16.6817 81.8596 15.9933 81.2911 15.406C80.7227 14.8187 80.0625 14.3506 79.3015 14.0109C78.5404 13.6712 77.697 13.5061 76.7803 13.5061C75.8451 13.5061 74.9832 13.6712 74.1948 14.0109C73.4061 14.3506 72.7369 14.8278 72.1778 15.4334C71.6184 16.0394 71.1784 16.7458 70.8573 17.5627C70.5365 18.3795 70.3716 19.2515 70.3716 20.1875V30.5494C70.3716 30.9715 70.2982 31.3663 70.1514 31.724C70.0048 32.082 69.7939 32.3941 69.5281 32.6603C69.2621 32.9263 68.9504 33.1282 68.6019 33.275C68.2537 33.4221 67.8686 33.4955 67.4467 33.4955C67.0341 33.4955 66.6492 33.4221 66.2824 33.275C65.9156 33.1282 65.5858 32.9173 65.3014 32.651C65.0171 32.3847 64.7881 32.0727 64.6229 31.715C64.4579 31.357 64.3755 30.9715 64.3755 30.5494V20.1691C64.3755 18.4072 64.6963 16.7551 65.3288 15.2225C65.9616 13.6896 66.8325 12.3498 67.942 11.2026C69.0512 10.0554 70.3623 9.15579 71.8751 8.49507C73.3971 7.83434 75.0199 7.50398 76.771 7.50398C78.5314 7.50398 80.1633 7.83434 81.667 8.49507C83.1704 9.15579 84.4725 10.0554 85.5819 11.2026C86.6821 12.3498 87.544 13.6896 88.1765 15.2225C88.8091 16.7551 89.1301 18.4072 89.1301 20.1691V30.5494Z" fill="#011C47"/>
<path d="M14.7954 7.49416H28.4424C28.9426 7.5001 29.3326 7.57868 29.7899 7.76816C30.8981 8.25647 31.572 9.2504 31.572 10.3581C31.5702 10.9242 31.3849 11.4787 31.0349 11.9468L15.9354 32.2203C14.9686 33.5185 13.0121 33.8597 11.588 32.9783C10.1637 32.097 9.78936 30.3137 10.7564 29.0155L22.2141 13.6312H14.8963C13.0074 13.6312 11.4618 12.2534 11.4618 10.5695C11.4618 9.5606 12.0171 8.66179 12.8683 8.10318C13.4003 7.72215 14.0701 7.49416 14.7954 7.49416ZM23.079 27.3145H29.8447C31.5723 27.3145 32.9857 28.7029 32.9857 30.4C32.9857 32.097 31.5723 33.4857 29.8447 33.4857H23.079C21.3515 33.4857 19.9383 32.097 19.9383 30.4C19.9383 28.7029 21.3515 27.3145 23.079 27.3145Z" fill="#011C47"/>
<path fill-rule="evenodd" clip-rule="evenodd" d="M47.4094 7.50993C47.7136 7.49675 49.6301 7.50192 50.5393 7.75421C51.868 8.01633 52.897 9.16846 52.9591 10.5941C53.0317 12.2642 51.7496 13.6764 50.0952 13.7485C49.9719 13.754 49.8501 13.7516 49.7299 13.7423C49.7304 13.762 47.9246 13.5712 47.6738 13.5823C43.8568 13.7485 40.8973 16.9795 41.0635 20.7988C41.23 24.6179 44.4591 27.579 48.2759 27.4128C52.0928 27.2463 55.0524 24.0153 54.8859 20.196C54.8746 19.9308 54.6135 18.3506 54.0701 17.2034C53.8923 16.7815 53.7134 16.3276 53.6824 15.8522C53.5311 13.5229 55.3639 12.5527 56.5587 12.5385C57.7537 12.5243 58.6083 13.1305 59.184 13.921C60.8024 16.4796 60.9389 19.641 60.9547 19.9316C61.3453 27.1799 55.709 33.1724 48.5403 33.4849C41.3719 33.7974 35.3072 28.2361 34.995 21.0633C34.6827 13.8905 40.2407 7.82246 47.4094 7.50993Z" fill="#011C47"/>
</g>
</g>
</g>
<defs>
<clipPath id="clip0_1_161">
<rect width="139" height="26" fill="white" transform="translate(10 7.5)"/>
</clipPath>
<clipPath id="clip1_1_161">
<rect width="139" height="26" fill="white" transform="translate(10 7.5)"/>
</clipPath>
<clipPath id="clip2_1_161">
<rect width="139" height="26.0117" fill="white" transform="translate(10 7.49416)"/>
</clipPath>
</defs>
</svg>
